# Made using Asset Forge (www.assetforge.io) version 1.3 

mtllib cylinder-center.mtl 

g cylinder_full_0

v 0.4330127 0.5 -0.25
v 0.4330127 -0.5 -0.25
v 0.4829629 0.5 -0.1294095
v 0.4829629 -0.5 -0.1294095
v 0.5 0.5 0
v 0.5 -0.5 0
v 0.4829629 0.5 0.1294095
v 0.4829629 -0.5 0.1294095
v 0.4330127 0.5 0.25
v 0.4330127 -0.5 0.25
v 0.3535534 -0.5 -0.3535534
v 0.3535534 0.5 -0.3535534
v 0.3535534 0.5 0.3535534
v 0.3535534 -0.5 0.3535534
v 0.25 -0.5 0.4330127
v 0.25 0.5 0.4330127
v 0.1294095 -0.5 0.4829629
v 0.1294095 0.5 0.4829629
v 0 -0.5 0.5
v 0 0.5 0.5
v -0.1294095 -0.5 0.4829629
v -0.1294095 0.5 0.4829629
v 0.25 0.5 -0.4330127
v 0.25 -0.5 -0.4330127
v 0.1294095 0.5 -0.4829629
v 0.1294095 -0.5 -0.4829629
v 0 0.5 -0.5
v 0 -0.5 -0.5
v -0.1294095 0.5 -0.4829629
v -0.1294095 -0.5 -0.4829629
v -0.25 -0.5 0.4330127
v -0.25 0.5 0.4330127
v -0.3535534 -0.5 0.3535534
v -0.3535534 0.5 0.3535534
v -0.4330127 0.5 0.25
v -0.4330127 -0.5 0.25
v -0.4829629 0.5 0.1294095
v -0.4829629 -0.5 0.1294095
v -0.5 0.5 0
v -0.5 -0.5 0
v -0.4829629 0.5 -0.1294095
v -0.4829629 -0.5 -0.1294095
v -0.4330127 0.5 -0.25
v -0.4330127 -0.5 -0.25
v -0.3535534 0.5 -0.3535534
v -0.3535534 -0.5 -0.3535534
v -0.25 -0.5 -0.4330127
v -0.25 0.5 -0.4330127
vn 0.8432718 0 -0.5374875
vn 0.8871137 0 -0.4615509
vn 0.9536499 0 -0.3009182
vn 0.9763442 0 -0.2162221
vn 0.9990385 0 -0.04384198
vn 0.9990385 0 0.04384198
vn 0.9763442 0 0.2162221
vn 0.9536499 0 0.3009182
vn 0.8871137 0 0.4615509
vn 0.8432718 0 0.5374875
vn 0.7071068 0 -0.7071068
vn 0.7071068 0 -0.7071068
vn 0.7071068 0 0.7071068
vn 0.7071068 0 0.7071068
vn 0.5374875 0 0.8432718
vn 0.4615509 0 0.8871137
vn 0.3009182 0 0.9536499
vn 0.2162221 0 0.9763442
vn 0.04384198 0 0.9990385
vn -0.04384198 0 0.9990385
vn -0.2162221 0 0.9763442
vn -0.3009182 0 0.9536499
vn 0.5374875 0 -0.8432718
vn 0.4615509 0 -0.8871137
vn 0.3009182 0 -0.9536499
vn 0.2162221 0 -0.9763442
vn 0.04384198 0 -0.9990385
vn -0.04384198 0 -0.9990385
vn -0.2162221 0 -0.9763442
vn -0.3009182 0 -0.9536499
vn -0.4615509 0 0.8871137
vn -0.5374875 0 0.8432718
vn -0.7071068 0 0.7071068
vn -0.7071068 0 0.7071068
vn -0.8432718 0 0.5374875
vn -0.8871137 0 0.4615509
vn -0.9536499 0 0.3009182
vn -0.9763442 0 0.2162221
vn -0.9990385 0 0.04384198
vn -0.9990385 0 -0.04384198
vn -0.9763442 0 -0.2162221
vn -0.9536499 0 -0.3009182
vn -0.8871137 0 -0.4615509
vn -0.8432718 0 -0.5374875
vn -0.7071068 0 -0.7071068
vn -0.7071068 0 -0.7071068
vn -0.5374875 0 -0.8432718
vn -0.4615509 0 -0.8871137
vn 0 -1 0
vn 0 1 0
vt 0.25 0.5
vt 0.25 -0.5
vt 0.1294095 0.5
vt 0.1294095 -0.5
vt 0 0.5
vt 0 -0.5
vt -0.1294095 0.5
vt -0.1294095 -0.5
vt -0.25 0.5
vt -0.25 -0.5
vt 0.3535534 -0.5
vt 0.3535534 0.5
vt -0.3535534 0.5
vt -0.3535534 -0.5
vt -0.5 0
vt -0.4829629 0.1294095
vt -0.4829629 -0.1294095
vt -0.4330127 0.25
vt -0.4330127 -0.25
vt -0.3535534 0.3535534
vt -0.3535534 -0.3535534
vt -0.25 0.4330127
vt -0.25 -0.4330127
vt -0.1294095 0.4829629
vt -0.1294095 -0.4829629
vt 0.1294095 -0.4829629
vt 0.1294095 0.4829629
vt 0.25 0.4330127
vt 0.25 -0.4330127
vt 0.3535534 0.3535534
vt 0.3535534 -0.3535534
vt 0.4330127 0.25
vt 0.4330127 -0.25
vt 0.4829629 0.1294095
vt 0.4829629 -0.1294095
vt 0.5 0

usemtl _defaultMat (Instance)
usemap _defaultMat (Instance)
f 3/3/3 2/2/2 1/1/1
f 2/2/2 3/3/3 4/4/4
f 5/5/5 4/4/4 3/3/3
f 4/4/4 5/5/5 6/6/6
f 7/7/7 6/6/6 5/5/5
f 6/6/6 7/7/7 8/8/8
f 9/9/9 8/8/8 7/7/7
f 8/8/8 9/9/9 10/10/10
f 11/11/11 1/1/1 2/2/2
f 1/1/1 11/11/11 12/12/12
f 13/13/13 10/10/10 9/9/9
f 10/10/10 13/13/13 14/14/14
f 13/12/13 15/2/15 14/11/14
f 15/2/15 13/12/13 16/1/16
f 16/1/16 17/4/17 15/2/15
f 17/4/17 16/1/16 18/3/18
f 18/3/18 19/6/19 17/4/17
f 19/6/19 18/3/18 20/5/20
f 20/5/20 21/8/21 19/6/19
f 21/8/21 20/5/20 22/7/22
f 11/14/11 23/9/23 12/13/12
f 23/9/23 11/14/11 24/10/24
f 24/10/24 25/7/25 23/9/23
f 25/7/25 24/10/24 26/8/26
f 26/8/26 27/5/27 25/7/25
f 27/5/27 26/8/26 28/6/28
f 28/6/28 29/3/29 27/5/27
f 29/3/29 28/6/28 30/4/30
f 22/7/22 31/10/31 21/8/21
f 31/10/31 22/7/22 32/9/32
f 32/9/32 33/14/33 31/10/31
f 33/14/33 32/9/32 34/13/34
f 35/1/35 33/11/33 34/12/34
f 33/11/33 35/1/35 36/2/36
f 37/3/37 36/2/36 35/1/35
f 36/2/36 37/3/37 38/4/38
f 39/5/39 38/4/38 37/3/37
f 38/4/38 39/5/39 40/6/40
f 41/7/41 40/6/40 39/5/39
f 40/6/40 41/7/41 42/8/42
f 43/9/43 42/8/42 41/7/41
f 42/8/42 43/9/43 44/10/44
f 45/13/45 44/10/44 43/9/43
f 44/10/44 45/13/45 46/14/46
f 45/12/45 47/2/47 46/11/46
f 47/2/47 45/12/45 48/1/48
f 48/1/48 30/4/30 47/2/47
f 30/4/30 48/1/48 29/3/29
f 8/17/49 4/16/49 6/15/49
f 4/16/49 8/17/49 2/18/49
f 2/18/49 8/17/49 10/19/49
f 2/18/49 10/19/49 11/20/49
f 11/20/49 10/19/49 14/21/49
f 11/20/49 14/21/49 24/22/49
f 24/22/49 14/21/49 15/23/49
f 24/22/49 15/23/49 26/24/49
f 26/24/49 15/23/49 17/25/49
f 26/24/49 17/25/49 19/6/49
f 26/24/49 19/6/49 28/5/49
f 28/5/49 19/6/49 21/26/49
f 28/5/49 21/26/49 30/27/49
f 30/27/49 21/26/49 47/28/49
f 47/28/49 21/26/49 31/29/49
f 47/28/49 31/29/49 46/30/49
f 46/30/49 31/29/49 33/31/49
f 46/30/49 33/31/49 44/32/49
f 44/32/49 33/31/49 36/33/49
f 44/32/49 36/33/49 42/34/49
f 42/34/49 36/33/49 38/35/49
f 42/34/49 38/35/49 40/36/49
f 3/17/50 7/16/50 5/15/50
f 7/16/50 3/17/50 1/19/50
f 7/16/50 1/19/50 9/18/50
f 9/18/50 1/19/50 12/21/50
f 9/18/50 12/21/50 13/20/50
f 13/20/50 12/21/50 23/23/50
f 13/20/50 23/23/50 16/22/50
f 16/22/50 23/23/50 25/25/50
f 16/22/50 25/25/50 18/24/50
f 18/24/50 25/25/50 27/6/50
f 18/24/50 27/6/50 20/5/50
f 20/5/50 27/6/50 29/26/50
f 20/5/50 29/26/50 22/27/50
f 22/27/50 29/26/50 48/29/50
f 22/27/50 48/29/50 32/28/50
f 32/28/50 48/29/50 45/31/50
f 32/28/50 45/31/50 34/30/50
f 34/30/50 45/31/50 43/33/50
f 34/30/50 43/33/50 35/32/50
f 35/32/50 43/33/50 41/35/50
f 35/32/50 41/35/50 37/34/50
f 37/34/50 41/35/50 39/36/50
g cylinder_full_1


usemtl _defaultMat (Instance) (Instance)
usemap _defaultMat (Instance) (Instance)
f 3/3/3 2/2/2 1/1/1
f 2/2/2 3/3/3 4/4/4
f 5/5/5 4/4/4 3/3/3
f 4/4/4 5/5/5 6/6/6
f 7/7/7 6/6/6 5/5/5
f 6/6/6 7/7/7 8/8/8
f 9/9/9 8/8/8 7/7/7
f 8/8/8 9/9/9 10/10/10
f 11/11/11 1/1/1 2/2/2
f 1/1/1 11/11/11 12/12/12
f 13/13/13 10/10/10 9/9/9
f 10/10/10 13/13/13 14/14/14
f 13/12/13 15/2/15 14/11/14
f 15/2/15 13/12/13 16/1/16
f 16/1/16 17/4/17 15/2/15
f 17/4/17 16/1/16 18/3/18
f 18/3/18 19/6/19 17/4/17
f 19/6/19 18/3/18 20/5/20
f 20/5/20 21/8/21 19/6/19
f 21/8/21 20/5/20 22/7/22
f 11/14/11 23/9/23 12/13/12
f 23/9/23 11/14/11 24/10/24
f 24/10/24 25/7/25 23/9/23
f 25/7/25 24/10/24 26/8/26
f 26/8/26 27/5/27 25/7/25
f 27/5/27 26/8/26 28/6/28
f 28/6/28 29/3/29 27/5/27
f 29/3/29 28/6/28 30/4/30
f 22/7/22 31/10/31 21/8/21
f 31/10/31 22/7/22 32/9/32
f 32/9/32 33/14/33 31/10/31
f 33/14/33 32/9/32 34/13/34
f 35/1/35 33/11/33 34/12/34
f 33/11/33 35/1/35 36/2/36
f 37/3/37 36/2/36 35/1/35
f 36/2/36 37/3/37 38/4/38
f 39/5/39 38/4/38 37/3/37
f 38/4/38 39/5/39 40/6/40
f 41/7/41 40/6/40 39/5/39
f 40/6/40 41/7/41 42/8/42
f 43/9/43 42/8/42 41/7/41
f 42/8/42 43/9/43 44/10/44
f 45/13/45 44/10/44 43/9/43
f 44/10/44 45/13/45 46/14/46
f 45/12/45 47/2/47 46/11/46
f 47/2/47 45/12/45 48/1/48
f 48/1/48 30/4/30 47/2/47
f 30/4/30 48/1/48 29/3/29
f 8/17/49 4/16/49 6/15/49
f 4/16/49 8/17/49 2/18/49
f 2/18/49 8/17/49 10/19/49
f 2/18/49 10/19/49 11/20/49
f 11/20/49 10/19/49 14/21/49
f 11/20/49 14/21/49 24/22/49
f 24/22/49 14/21/49 15/23/49
f 24/22/49 15/23/49 26/24/49
f 26/24/49 15/23/49 17/25/49
f 26/24/49 17/25/49 19/6/49
f 26/24/49 19/6/49 28/5/49
f 28/5/49 19/6/49 21/26/49
f 28/5/49 21/26/49 30/27/49
f 30/27/49 21/26/49 47/28/49
f 47/28/49 21/26/49 31/29/49
f 47/28/49 31/29/49 46/30/49
f 46/30/49 31/29/49 33/31/49
f 46/30/49 33/31/49 44/32/49
f 44/32/49 33/31/49 36/33/49
f 44/32/49 36/33/49 42/34/49
f 42/34/49 36/33/49 38/35/49
f 42/34/49 38/35/49 40/36/49
f 3/17/50 7/16/50 5/15/50
f 7/16/50 3/17/50 1/19/50
f 7/16/50 1/19/50 9/18/50
f 9/18/50 1/19/50 12/21/50
f 9/18/50 12/21/50 13/20/50
f 13/20/50 12/21/50 23/23/50
f 13/20/50 23/23/50 16/22/50
f 16/22/50 23/23/50 25/25/50
f 16/22/50 25/25/50 18/24/50
f 18/24/50 25/25/50 27/6/50
f 18/24/50 27/6/50 20/5/50
f 20/5/50 27/6/50 29/26/50
f 20/5/50 29/26/50 22/27/50
f 22/27/50 29/26/50 48/29/50
f 22/27/50 48/29/50 32/28/50
f 32/28/50 48/29/50 45/31/50
f 32/28/50 45/31/50 34/30/50
f 34/30/50 45/31/50 43/33/50
f 34/30/50 43/33/50 35/32/50
f 35/32/50 43/33/50 41/35/50
f 35/32/50 41/35/50 37/34/50
f 37/34/50 41/35/50 39/36/50
g cylinder_full_2


usemtl _defaultMat (Instance) (Instance) (Instance)
usemap _defaultMat (Instance) (Instance) (Instance)
f 3/3/3 2/2/2 1/1/1
f 2/2/2 3/3/3 4/4/4
f 5/5/5 4/4/4 3/3/3
f 4/4/4 5/5/5 6/6/6
f 7/7/7 6/6/6 5/5/5
f 6/6/6 7/7/7 8/8/8
f 9/9/9 8/8/8 7/7/7
f 8/8/8 9/9/9 10/10/10
f 11/11/11 1/1/1 2/2/2
f 1/1/1 11/11/11 12/12/12
f 13/13/13 10/10/10 9/9/9
f 10/10/10 13/13/13 14/14/14
f 13/12/13 15/2/15 14/11/14
f 15/2/15 13/12/13 16/1/16
f 16/1/16 17/4/17 15/2/15
f 17/4/17 16/1/16 18/3/18
f 18/3/18 19/6/19 17/4/17
f 19/6/19 18/3/18 20/5/20
f 20/5/20 21/8/21 19/6/19
f 21/8/21 20/5/20 22/7/22
f 11/14/11 23/9/23 12/13/12
f 23/9/23 11/14/11 24/10/24
f 24/10/24 25/7/25 23/9/23
f 25/7/25 24/10/24 26/8/26
f 26/8/26 27/5/27 25/7/25
f 27/5/27 26/8/26 28/6/28
f 28/6/28 29/3/29 27/5/27
f 29/3/29 28/6/28 30/4/30
f 22/7/22 31/10/31 21/8/21
f 31/10/31 22/7/22 32/9/32
f 32/9/32 33/14/33 31/10/31
f 33/14/33 32/9/32 34/13/34
f 35/1/35 33/11/33 34/12/34
f 33/11/33 35/1/35 36/2/36
f 37/3/37 36/2/36 35/1/35
f 36/2/36 37/3/37 38/4/38
f 39/5/39 38/4/38 37/3/37
f 38/4/38 39/5/39 40/6/40
f 41/7/41 40/6/40 39/5/39
f 40/6/40 41/7/41 42/8/42
f 43/9/43 42/8/42 41/7/41
f 42/8/42 43/9/43 44/10/44
f 45/13/45 44/10/44 43/9/43
f 44/10/44 45/13/45 46/14/46
f 45/12/45 47/2/47 46/11/46
f 47/2/47 45/12/45 48/1/48
f 48/1/48 30/4/30 47/2/47
f 30/4/30 48/1/48 29/3/29
f 8/17/49 4/16/49 6/15/49
f 4/16/49 8/17/49 2/18/49
f 2/18/49 8/17/49 10/19/49
f 2/18/49 10/19/49 11/20/49
f 11/20/49 10/19/49 14/21/49
f 11/20/49 14/21/49 24/22/49
f 24/22/49 14/21/49 15/23/49
f 24/22/49 15/23/49 26/24/49
f 26/24/49 15/23/49 17/25/49
f 26/24/49 17/25/49 19/6/49
f 26/24/49 19/6/49 28/5/49
f 28/5/49 19/6/49 21/26/49
f 28/5/49 21/26/49 30/27/49
f 30/27/49 21/26/49 47/28/49
f 47/28/49 21/26/49 31/29/49
f 47/28/49 31/29/49 46/30/49
f 46/30/49 31/29/49 33/31/49
f 46/30/49 33/31/49 44/32/49
f 44/32/49 33/31/49 36/33/49
f 44/32/49 36/33/49 42/34/49
f 42/34/49 36/33/49 38/35/49
f 42/34/49 38/35/49 40/36/49
f 3/17/50 7/16/50 5/15/50
f 7/16/50 3/17/50 1/19/50
f 7/16/50 1/19/50 9/18/50
f 9/18/50 1/19/50 12/21/50
f 9/18/50 12/21/50 13/20/50
f 13/20/50 12/21/50 23/23/50
f 13/20/50 23/23/50 16/22/50
f 16/22/50 23/23/50 25/25/50
f 16/22/50 25/25/50 18/24/50
f 18/24/50 25/25/50 27/6/50
f 18/24/50 27/6/50 20/5/50
f 20/5/50 27/6/50 29/26/50
f 20/5/50 29/26/50 22/27/50
f 22/27/50 29/26/50 48/29/50
f 22/27/50 48/29/50 32/28/50
f 32/28/50 48/29/50 45/31/50
f 32/28/50 45/31/50 34/30/50
f 34/30/50 45/31/50 43/33/50
f 34/30/50 43/33/50 35/32/50
f 35/32/50 43/33/50 41/35/50
f 35/32/50 41/35/50 37/34/50
f 37/34/50 41/35/50 39/36/50
